# xmcd CD database file
#
# Track frame offsets:
#	150
#	23775
#	47588
#	67388
#	82238
#	109500
#	127350
#	150300
#	161856
#	177100
#	192465
#	206385
#	216923
#	233541
#	249799
#	261544
#	276907
#
# Disc length: 3916 seconds
#
# Revision: 0
# Processed by: cddbd v1.5.2PL0 Copyright (c) Steve Scherf et al.
# Submitted via: CDex 1.51
#
DISCID=fa0f4a11
DTITLE=Helen Merrill and Shirley Horn - Queens of Vocal Jazz CD7 Helen Merrill - Helen Merrill With Clifford Brown and Shirley Horn - Embers And Ashes 
DYEAR=1900
DGENRE=Jazz
TTITLE0=Helen Merrill - Don't Explain
TTITLE1=Helen Merrill - You'd Be So Nice To Come Home To
TTITLE2=Helen Merrill - What's New
TTITLE3=Helen Merrill - Falling In Love With Love
TTITLE4=Helen Merrill - Yesterdays
TTITLE5=Helen Merrill - Born To Be Blue
TTITLE6=Helen Merrill - 'S Wonderful
TTITLE7=Shirley Horn - Like Someone In Love
TTITLE8=Shirley Horn - He Never Mentioned Love
TTITLE9=Shirley Horn - Softly As In A Morning Sunrise
TTITLE10=Shirley Horn - I Thought About You
TTITLE11=Shirley Horn - Mountain Greenery
TTITLE12=Shirley Horn - God Bless The Child
TTITLE13=Shirley Horn - Blue City
TTITLE14=Shirley Horn - Day By Day
TTITLE15=Shirley Horn - If I Should Lose You
TTITLE16=Shirley Horn - Wild Is The Wind
EXTD=
EXTT0=
EXTT1=
EXTT2=
EXTT3=
EXTT4=
EXTT5=
EXTT6=
EXTT7=
EXTT8=
EXTT9=
EXTT10=
EXTT11=
EXTT12=
EXTT13=
EXTT14=
EXTT15=
EXTT16=
PLAYORDER=
